<svg width="450" height="470" viewBox="0 0 450 470" fill="none" xmlns="http://www.w3.org/2000/svg">
<path d="M373.104 430.531C373.104 452.303 301.691 469.953 213.603 469.953C125.512 469.953 54.0995 452.303 54.0995 430.531C54.0995 408.773 125.512 391.121 213.603 391.121C301.691 391.121 373.104 408.773 373.104 430.531Z" fill="#3F2117"/>
<path d="M372.91 430.531H54.292L19.2142 258.768H407.992L372.91 430.531Z" fill="#3F2117"/>
<path d="M122.563 463.565L121.961 463.481C121.936 463.252 121.911 463.023 121.886 462.785C122.092 462.821 122.298 462.858 122.507 462.895L122.566 463.565" fill="#DBA694"/>
<path d="M122.504 462.895C122.294 462.859 122.088 462.822 121.882 462.785C120.903 454.191 119.664 443.295 118.21 430.531H119.748L122.504 462.895" fill="#4F281B"/>
<path d="M119.748 430.531H118.21C114.898 401.502 110.48 362.854 105.554 320.009C107.145 320.09 108.742 320.131 110.343 320.154L119.748 430.531" fill="#4F281B"/>
<path d="M105.358 460.369L104.864 460.263L104.736 459.347C104.909 459.383 105.086 459.425 105.263 459.462L105.358 460.369" fill="#DBA694"/>
<path d="M105.263 459.462C105.086 459.426 104.909 459.383 104.736 459.348L100.73 430.531H102.193L105.263 459.462" fill="#4F281B"/>
<path d="M102.193 430.531H100.73L84.936 316.97C86.6963 317.45 88.4801 317.864 90.2773 318.221L102.193 430.531" fill="#4F281B"/>
<path d="M74.5117 452.256L74.2728 452.161L73.7198 449.493C73.8438 449.55 73.9687 449.602 74.096 449.658L74.5117 452.256Z" fill="#DBA694"/>
<path d="M74.0961 449.658C73.9688 449.601 73.8439 449.552 73.7199 449.493L69.8055 430.531H71.0229L74.0961 449.658Z" fill="#4F281B"/>
<path d="M71.0228 430.531H69.8055L43.4655 303.013C45.8617 303.708 48.3166 304.25 50.81 304.694L71.0228 430.531Z" fill="#4F281B"/>
<path d="M89.5533 457.16L89.0624 457.023L88.7356 455.065C88.9317 455.122 89.1252 455.185 89.3246 455.244L89.5533 457.16" fill="#DBA694"/>
<path d="M89.3247 455.244C89.1253 455.187 88.9317 455.122 88.7357 455.065L84.6085 430.531H86.3596L89.3247 455.244" fill="#4F281B"/>
<path d="M86.3594 430.531H84.6084L63.9505 307.705C63.984 307.72 64.0176 307.741 64.0486 307.756C66.7515 309.256 69.3898 310.721 72.1488 312.093L86.3594 430.531" fill="#4F281B"/>
<path d="M202.512 469.844L201.454 469.822L200.266 430.532H202.335L202.512 469.844" fill="#4F281B"/>
<path d="M202.335 430.531H200.266L197.023 322.969C198.63 323.112 200.234 323.227 201.847 323.313L202.335 430.531" fill="#4F281B"/>
<path d="M280.342 466.662L280.367 466.341C280.656 466.313 280.93 466.277 281.218 466.246L281.185 466.57L280.34 466.662" fill="#DBA694"/>
<path d="M280.365 466.341L282.63 430.531H284.567L281.216 466.246C280.928 466.275 280.653 466.31 280.365 466.341Z" fill="#4F281B"/>
<path d="M284.567 430.531H282.63L289.784 317.506C290.776 317.615 291.725 317.699 292.616 317.766C293.456 317.823 294.294 317.872 295.129 317.922L284.567 430.531Z" fill="#4F281B"/>
<path d="M305.14 463.467L305.216 462.808C305.425 462.772 305.635 462.737 305.841 462.693L305.749 463.372L305.144 463.467" fill="#DBA694"/>
<path d="M305.212 462.808L308.767 430.531H310.288L305.837 462.693C305.631 462.736 305.422 462.772 305.212 462.808Z" fill="#4F281B"/>
<path d="M310.288 430.531H308.767L321.255 317.171C322.852 316.992 324.456 316.777 326.066 316.548L310.288 430.531" fill="#4F281B"/>
<path d="M139.287 465.663L138.259 465.54L138.234 465.282C138.578 465.332 138.925 465.374 139.272 465.419L139.288 465.663" fill="#DBA694"/>
<path d="M139.274 465.419C138.927 465.376 138.58 465.333 138.237 465.282L135.196 430.531H137.464L139.274 465.419" fill="#4F281B"/>
<path d="M137.464 430.531H135.196L125.503 319.682C127.574 319.545 129.642 319.388 131.698 319.215L137.464 430.531" fill="#4F281B"/>
<path d="M292.759 464.682L295.986 430.531H298.038L293.617 464.573L292.759 464.682Z" fill="#4F281B"/>
<path d="M298.038 430.531H295.986L306.603 318.137C308.633 318.101 310.652 318.028 312.671 317.914L298.038 430.531" fill="#4F281B"/>
<path d="M328.364 458.99L328.534 457.867C328.694 457.824 328.852 457.789 329.009 457.746L328.78 458.903L328.364 458.99Z" fill="#DBA694"/>
<path d="M328.535 457.867L332.694 430.531H334.334L329.009 457.746C328.852 457.789 328.695 457.825 328.535 457.867" fill="#4F281B"/>
<path d="M334.334 430.531H332.694L351.16 309.25C353.732 308.16 356.258 307.032 358.723 305.901L334.334 430.531" fill="#4F281B"/>
<path d="M352.547 450.417L352.671 449.85C352.688 449.845 352.705 449.836 352.721 449.829L352.574 450.399L352.54 450.413" fill="#DBA694"/>
<path d="M352.671 449.851L356.929 430.531H357.695L352.724 449.831C352.707 449.837 352.69 449.846 352.673 449.853" fill="#4F281B"/>
<path d="M357.695 430.531H356.929L387.223 293.139C388.623 292.567 390.086 291.952 391.591 291.301L381.602 337.756L357.695 430.531" fill="#4F281B"/>
<path d="M342.071 455.286L342.316 453.82C342.375 453.798 342.444 453.777 342.506 453.755L342.185 455.244L342.071 455.287" fill="#DBA694"/>
<path d="M342.316 453.82L346.214 430.531H347.507L342.505 453.755C342.447 453.777 342.378 453.798 342.316 453.82Z" fill="#4F281B"/>
<path d="M347.507 430.531H346.214L367.854 301.348C369.778 300.318 371.687 299.259 373.595 298.214C373.801 298.103 374.733 297.779 376.216 297.256L347.507 430.531Z" fill="#4F281B"/>
<path d="M316.419 461.112L316.477 460.657C316.638 460.629 316.795 460.593 316.952 460.562L316.877 461.015L316.419 461.112" fill="#DBA694"/>
<path d="M316.474 460.657L320.251 430.531H321.786L316.949 460.562C316.791 460.591 316.635 460.627 316.474 460.657" fill="#4F281B"/>
<path d="M321.786 430.531H320.251L334.75 314.889C336.74 314.389 338.719 313.816 340.68 313.183L321.786 430.531" fill="#4F281B"/>
<path d="M188.664 469.559L187.84 469.537L187.833 469.436C188.111 469.451 188.382 469.465 188.661 469.472L188.664 469.559" fill="#DBA694"/>
<path d="M188.661 469.472C188.382 469.465 188.111 469.451 187.833 469.436L186.026 430.532H187.738L188.661 469.473" fill="#4F281B"/>
<path d="M187.738 430.531H186.027L180.94 321.095C182.344 321.282 183.752 321.475 185.159 321.654L187.738 430.531" fill="#4F281B"/>
<path d="M172.86 468.863L171.871 468.806L171.863 468.586C172.193 468.607 172.527 468.636 172.857 468.657L172.864 468.864" fill="#DBA694"/>
<path d="M172.853 468.656C172.523 468.635 172.189 468.606 171.858 468.585L169.594 430.529H171.701L172.853 468.654" fill="#4F281B"/>
<path d="M171.701 430.531H169.594L162.953 318.839C164.749 319.009 166.547 319.21 168.34 319.422L171.701 430.531Z" fill="#4F281B"/>
<path d="M155.449 467.657L154.611 467.584L154.577 467.162C154.858 467.191 155.143 467.219 155.428 467.248L155.445 467.657" fill="#DBA694"/>
<path d="M155.432 467.249C155.147 467.22 154.862 467.191 154.581 467.162L151.992 430.531H153.854L155.432 467.249" fill="#4F281B"/>
<path d="M153.854 430.531H151.993L144.049 318.188C145.666 318.106 147.283 318.073 148.89 318.073C148.932 318.073 148.978 318.073 149.021 318.073L153.854 430.531" fill="#4F281B"/>
<path d="M235.164 469.615V469.593C235.495 469.586 235.825 469.572 236.159 469.557L236.156 469.572L235.164 469.615" fill="#DBA694"/>
<path d="M235.164 469.595L235.684 430.531H237.632L236.159 469.559C235.825 469.573 235.495 469.587 235.164 469.595" fill="#4F281B"/>
<path d="M237.632 430.531H235.684L237.125 322.913C238.689 322.721 240.22 322.469 241.729 322.176L237.632 430.531" fill="#4F281B"/>
<path d="M250.569 468.958L250.573 468.886C250.828 468.872 251.086 468.857 251.342 468.843L251.339 468.921L250.569 468.957" fill="#DBA694"/>
<path d="M250.573 468.886L251.711 430.531H253.338L251.342 468.844C251.086 468.858 250.828 468.872 250.573 468.887" fill="#4F281B"/>
<path d="M253.338 430.531H251.711L255.04 318.715C256.424 318.316 257.815 317.908 259.219 317.514L253.338 430.531Z" fill="#4F281B"/>
<path d="M217.533 470V469.936C217.848 469.936 218.162 469.936 218.476 469.936V469.979L217.533 470Z" fill="#DBA694"/>
<path d="M217.534 469.936L217.079 430.531H218.996L218.476 469.936C218.162 469.936 217.848 469.936 217.534 469.936Z" fill="#4F281B"/>
<path d="M218.996 430.531H217.078L215.842 323.598C217.363 323.598 218.886 323.583 220.411 323.569L218.996 430.53" fill="#4F281B"/>
<path d="M263.873 468.114L263.882 467.956C264.202 467.927 264.526 467.898 264.85 467.872L264.834 468.042L263.868 468.114" fill="#DBA694"/>
<path d="M263.883 467.956L265.762 430.531H267.814L264.852 467.872C264.528 467.901 264.203 467.929 263.883 467.956" fill="#4F281B"/>
<path d="M267.814 430.531H265.762L271.522 315.732C273.256 315.775 275.066 315.898 276.896 316.062L267.814 430.531Z" fill="#4F281B"/>
<path d="M407.992 253.547C407.992 289.148 320.961 310.727 213.603 310.727C106.238 310.727 19.2142 293.341 19.2142 257.751C19.2142 222.159 106.238 157.627 213.603 157.627C320.961 157.627 407.992 217.961 407.992 253.547" fill="#5C311F"/>
<path d="M332.975 257.458C315.23 256.695 294.16 253.57 272.134 248.006C269.263 247.286 266.433 246.534 263.647 245.755C303.995 237.973 332.674 226.935 342.493 214.336C344.191 213.079 345.808 211.76 347.337 210.397C364.123 218.497 376.065 227.142 380.778 234.921C378.412 236.038 376.209 237.56 374.265 239.535C372.881 239.847 371.503 240.155 370.125 240.47C361.94 242.344 354.746 245.417 347.726 249.386C343.01 252.054 338.077 254.936 332.975 257.458" fill="#673922"/>
<path d="M122.174 257.653C110.104 257.653 98.2593 257.424 86.7097 256.988C83.8292 255.879 80.7887 255.005 77.8169 254.17C74.2007 253.478 70.5486 252.975 66.8471 252.718L66.6862 252.712C65.773 251.645 64.6737 250.374 64.2682 249.665C61.3718 244.724 59.7707 239.183 55.7876 234.8C50.3392 228.823 43.4856 226.284 36.6128 226.284C36.2165 226.284 35.8177 226.289 35.4214 226.305C43.9179 216.937 55.5396 207.348 69.6614 198.419C85.7379 224.046 124.651 235.684 173.321 239.424C186.19 240.418 199.739 240.862 213.734 240.862C224.505 240.862 235.007 240.597 245.143 240.024C251.044 242.042 257.229 243.966 263.647 245.753C225.074 253.188 175.832 257.652 122.174 257.652V257.653ZM65.5048 252.647C64.2648 252.59 63.4923 252.537 63.194 252.487C63.1773 252.459 63.1606 252.437 63.1522 252.416C63.3349 252.387 63.7772 252.359 64.4743 252.338L65.2987 252.458L65.5048 252.645" fill="#542B1C"/>
<path d="M263.647 245.755C257.229 243.967 251.044 242.043 245.143 240.026C261.579 239.096 277.047 237.339 291.054 234.535C293.136 234.206 295.476 233.692 297.995 233.035C315.871 228.856 331.067 222.796 342.493 214.336C332.674 226.935 303.995 237.973 263.647 245.755" fill="#5D311F"/>
<path d="M358.618 196.633C358.559 196.597 358.493 196.56 358.435 196.524C362.889 188.686 365.291 179.6 365.291 169.096C365.291 116.698 298.755 52.7893 237.76 20.5987C237.174 20.2469 236.578 19.8979 235.983 19.554C297.514 51.3871 365.53 116.141 365.53 169.104C365.53 179.651 363.108 188.773 358.618 196.633V196.633ZM214.817 9.82315C214.117 9.57146 213.416 9.32336 212.707 9.08025C198.509 3.58097 185.247 0.340474 173.979 0.00012064C185.793 0.312588 199.815 3.83764 214.817 9.82315" fill="#BDDFDC"/>
<path d="M347.337 210.397C347.278 210.376 347.225 210.347 347.17 210.316C351.735 206.227 355.525 201.638 358.435 196.524C358.493 196.559 358.556 196.597 358.618 196.633C355.699 201.736 351.905 206.314 347.337 210.397Z" fill="#70746B"/>
<path d="M342.493 214.336C342.61 214.185 342.725 214.037 342.836 213.877C344.352 212.735 345.792 211.554 347.17 210.316C347.228 210.344 347.281 210.373 347.337 210.397C345.808 211.76 344.191 213.079 342.493 214.336" fill="#757A6F"/>
<path d="M213.734 240.864C199.739 240.864 186.19 240.42 173.321 239.425C186.108 240.406 199.572 240.842 213.472 240.842C213.472 240.842 213.476 240.842 213.478 240.842C213.485 240.842 213.485 240.842 213.485 240.842C213.586 240.842 213.688 240.842 213.79 240.842C213.798 240.842 213.815 240.842 213.823 240.842C213.848 240.842 213.882 240.842 213.899 240.842C213.915 240.842 213.924 240.842 213.932 240.842C214.066 240.842 214.194 240.842 214.329 240.842C214.345 240.842 214.37 240.842 214.387 240.842C214.521 240.842 214.646 240.842 214.777 240.842C214.793 240.842 214.819 240.842 214.835 240.842C214.967 240.842 215.098 240.842 215.228 240.842C215.245 240.842 215.253 240.842 215.27 240.842C225.472 240.813 235.434 240.549 245.056 239.998C245.09 240.005 245.115 240.02 245.141 240.027C235.006 240.599 224.503 240.865 213.732 240.865" fill="#6B716B"/>
<path d="M245.143 240.026C245.109 240.02 245.084 240.004 245.058 239.997C261.026 239.081 276.065 237.395 289.749 234.727C290.171 234.67 290.606 234.607 291.054 234.535C277.047 237.338 261.579 239.095 245.143 240.025V240.026ZM297.995 233.034C298.775 232.833 299.57 232.618 300.381 232.384C317.423 228.163 331.905 222.144 342.836 213.877C342.725 214.036 342.61 214.184 342.493 214.335C331.067 222.795 315.872 228.856 297.995 233.034" fill="#70746E"/>
<path d="M221.245 273.404C215.813 273.404 210.32 273.16 205.074 273.096C186.933 272.867 169.8 267.339 151.655 267.339C151.55 267.339 151.452 267.339 151.351 267.339C141.834 267.368 132.326 268.985 122.822 269.387C119.084 269.549 115.344 269.644 111.615 269.745C111.504 269.745 107.941 269.465 105.813 269.465C104.517 269.465 103.754 269.566 104.641 269.906C99.1727 267.848 94.5051 264.466 89.3407 261.935C85.5545 260.092 81.2832 258.86 77.1468 257.695C73.5399 256.994 69.8776 256.508 66.1794 256.237H66.0219C65.9465 256.142 65.8652 256.05 65.7831 255.958C72.6366 256.379 79.6175 256.723 86.7098 256.989C87.8383 257.43 88.9452 257.902 90.0117 258.424C95.1896 260.949 99.8664 264.346 105.342 266.39C104.406 266.038 105.162 265.932 106.471 265.932C107.515 265.932 108.913 266.004 110.077 266.075C111.243 266.139 112.168 266.211 112.271 266.211C112.273 266.211 112.276 266.211 112.276 266.211C116.011 266.111 119.755 266.024 123.486 265.868C132.994 265.46 142.504 263.846 152.019 263.815C152.11 263.815 152.199 263.815 152.29 263.815C170.448 263.815 187.591 269.342 205.745 269.585C210.978 269.643 216.447 269.878 221.86 269.878C225.417 269.878 228.949 269.778 232.376 269.465C232.094 269.471 231.849 269.479 231.646 269.479C229.931 269.479 230.939 269.163 234.67 268.521C236.997 267.812 239.295 267.063 241.582 266.253C245.143 265.125 248.442 264.3 252.196 263.759C256.997 263.058 261.759 262.801 266.508 262.801C272.746 262.801 278.955 263.245 285.166 263.681C291.381 264.122 297.6 264.561 303.864 264.561C305.916 264.561 307.972 264.511 310.033 264.401C317.933 263.979 325.631 261.091 332.975 257.458C334.923 257.544 336.824 257.603 338.687 257.631C329.46 262.706 319.583 267.384 309.362 267.926C307.314 268.035 305.271 268.085 303.235 268.085C296.965 268.085 290.74 267.641 284.518 267.206C278.3 266.762 272.085 266.325 265.841 266.325C261.092 266.325 256.326 266.574 251.525 267.276C247.774 267.826 244.473 268.649 240.912 269.786C238.634 270.58 236.333 271.345 234.009 272.038C230.327 272.689 229.292 273.004 230.903 273.004C231.126 273.004 231.394 272.997 231.715 272.982C228.305 273.298 224.787 273.404 221.245 273.404V273.404ZM381.855 236.96C381.554 236.287 381.194 235.609 380.778 234.921C384.159 233.335 387.874 232.598 391.627 232.598C394.73 232.598 397.862 233.106 400.86 234.058C399.43 233.899 397.983 233.821 396.544 233.821C391.438 233.821 386.349 234.823 381.855 236.96V236.96ZM35.4114 226.313C35.3946 226.313 35.3779 226.313 35.3611 226.307C35.3779 226.307 35.4031 226.307 35.4198 226.307C35.4165 226.313 35.4164 226.313 35.4114 226.313Z" fill="#4D281B"/>
<path d="M338.687 257.631C336.824 257.602 334.923 257.544 332.975 257.458C338.077 254.936 343.01 252.054 347.726 249.386C354.746 245.417 361.94 242.344 370.125 240.47C371.503 240.155 372.881 239.847 374.265 239.535C376.209 237.56 378.412 236.038 380.778 234.921C381.194 235.608 381.554 236.286 381.855 236.959C378.752 238.432 375.934 240.457 373.594 243.059C372.22 243.386 370.832 243.68 369.454 243.987C361.269 245.869 354.082 248.936 347.062 252.905C344.339 254.441 341.544 256.058 338.687 257.631" fill="#532C1C"/>
<path d="M86.7097 256.989C79.6174 256.723 72.6366 256.379 65.783 255.958C64.9226 254.949 63.9666 253.835 63.6038 253.198C63.4664 252.961 63.3281 252.726 63.1941 252.489C63.4923 252.539 64.2648 252.59 65.5048 252.648L65.2988 252.461L64.4743 252.341C63.7772 252.362 63.3349 252.391 63.1523 252.419C60.4586 247.707 58.1906 242.88 55.1174 238.325C50.1389 230.946 42.9553 227.248 35.4113 226.312C35.418 226.312 35.4181 226.312 35.4198 226.307C35.8161 226.292 36.2149 226.285 36.6112 226.285C43.484 226.285 50.3375 228.824 55.786 234.802C59.7691 239.184 61.3701 244.726 64.2665 249.667C64.6721 250.376 65.7713 251.647 66.6846 252.713L66.8454 252.719C70.547 252.977 74.1991 253.479 77.8152 254.171C80.787 255.007 83.8276 255.881 86.7081 256.99" fill="#4A261A"/>
<path d="M373.595 243.059C372.22 243.386 370.832 243.68 369.454 243.986C361.269 245.869 354.082 248.936 347.062 252.905C335.548 259.418 322.748 267.219 309.362 267.926C301.013 268.37 292.759 267.784 284.518 267.205C273.571 266.426 262.639 265.652 251.525 267.277C247.774 267.827 244.473 268.651 240.912 269.787C238.634 270.581 236.333 271.346 234.009 272.039C229.823 272.776 229.057 273.084 231.715 272.983C223.075 273.784 213.744 273.207 205.074 273.097C186.832 272.868 169.607 267.277 151.351 267.341C141.834 267.369 132.326 268.986 122.822 269.388C119.084 269.55 115.344 269.645 111.615 269.746C111.439 269.746 102.213 269.008 104.674 269.916C99.1919 267.863 94.5185 264.475 89.3407 261.936C85.5545 260.093 81.2832 258.861 77.1468 257.696C73.5399 256.996 69.8776 256.509 66.1794 256.238H66.0219C65.1087 255.166 64.0027 253.892 63.6039 253.199C60.7074 248.244 58.3607 243.13 55.1174 238.326C36.1513 210.203 -14.8355 235.553 4.17587 263.738C12.7897 276.508 17.1423 288.493 31.6344 297.788C40.776 303.659 51.5038 305.067 62.5264 306.282C57.5555 305.741 60.9462 306.025 64.0488 307.757C67.6355 309.751 71.1084 311.681 74.9013 313.404C94.6986 322.292 118.083 320.56 139.556 318.502C161.667 316.384 182.849 322.75 205.074 323.457C213.888 323.713 222.891 323.593 231.715 323.337C243.288 322.993 252.697 319.074 263.503 316.371C271.077 314.5 284.299 317.181 292.616 317.767C304.914 318.625 316.592 318.108 328.737 316.136C339.793 314.349 350.619 309.673 360.414 305.117C364.938 303.008 369.271 300.589 373.595 298.216C375.149 297.353 418.261 284.63 425.494 264.782C435.627 236.975 391.169 223.512 373.595 243.06" fill="white"/>
<path d="M299.887 315.621C294.088 315.621 289.091 315.375 286.473 314.884C277.488 313.211 258.938 310.872 259.949 306.94C260.686 304.072 272.285 301.253 281.729 301.253C285.254 301.253 288.478 301.647 290.727 302.577C312.065 311.395 334.51 307.454 333.496 311.395C332.779 314.191 313.977 315.621 299.887 315.621" fill="#C7EDF5"/>
<path d="M376.965 292.48C375.532 292.48 374.446 292.167 373.869 291.444C371.208 288.106 382.552 278.288 391.176 273.283C396.602 270.13 402.238 268.429 406.332 268.429C408.744 268.429 410.623 269.021 411.608 270.25C414.262 273.582 407.229 279.453 398.605 284.458C391.854 288.377 382.14 292.48 376.965 292.48" fill="#C7EDF5"/>
<path d="M193.135 320.232C187.345 320.232 178.656 318.665 172.245 317.473C162.076 315.562 154.443 308.211 155.448 304.264C155.769 303.013 156.954 302.541 158.744 302.541C162.593 302.541 169.246 304.722 176.182 306.01C186.347 307.912 200.289 314.302 199.281 318.244C198.908 319.702 196.515 320.232 193.135 320.232Z" fill="#C7EDF5"/>
<path d="M195.449 288.634C185.719 288.634 172.133 283.523 163.002 282.598C149.839 281.278 126.945 279.94 127.656 274.834C128.039 272.06 135.697 270.557 145.886 270.557C154.395 270.557 164.668 271.602 173.947 273.82C186.698 276.872 208.576 280.54 205.34 284.875C203.261 287.648 199.726 288.634 195.449 288.634Z" fill="#E1F5FA"/>
<path d="M53.5262 261.371C48.6927 261.371 41.7931 255.408 37.123 251.268C31.4282 246.196 32.8392 236.331 37.3618 232.628C38.265 231.882 39.1264 231.56 39.9676 231.56C43.3549 231.56 46.47 236.744 51.0362 240.792C56.7301 245.869 60.9168 256.695 56.3967 260.399C55.5756 261.069 54.6003 261.371 53.5262 261.371" fill="#E1F5FA"/>
<path d="M292.544 280.727C288.914 280.727 283.867 280.104 278.778 279.998C269.186 279.789 255.253 276.07 255.364 272.353C255.452 269.501 264.315 268.957 272.762 268.957C275.296 268.957 277.793 269 280.005 269.049C289.588 269.256 298.009 274.783 297.901 278.504C297.85 280.24 295.747 280.727 292.544 280.727" fill="#E1F5FA"/>
<path d="M412.121 247.699C409.225 247.699 405.239 247.126 401.217 247.043C393.555 246.883 382.434 243.308 382.542 239.691C382.627 236.817 390.204 236.317 397.155 236.317C398.946 236.317 400.693 236.346 402.261 236.382C409.922 236.543 416.622 241.9 416.517 245.512C416.458 247.235 414.736 247.699 412.121 247.699Z" fill="#D5F1F8"/>
<path d="M97.7289 316.521C89.8314 316.521 77.9844 313.633 72.2402 309.851C64.0026 304.429 60.3504 296.701 64.0646 292.589C65.5936 290.902 68.1231 290.087 71.1477 290.087C75.4935 290.087 80.8539 291.773 85.7109 294.977C93.936 300.404 108.664 310.635 104.942 314.741C103.82 315.979 101.142 316.521 97.7289 316.521" fill="#D5F1F8"/>
<path d="M310.762 108.394C328.924 77.7238 299.906 52.5744 295.941 53.544C292.722 54.3256 305.274 86.4796 282.824 81.4537C229.883 69.5913 173.27 74.7657 137.028 80.1379C110.674 85.3419 126.646 54.4146 123.841 52.5052C119.805 51.5158 89.4249 77.0115 109.614 107.098C112.076 110.504 113.452 114.55 113.57 118.723C108.303 156.318 106.719 209.654 115.941 217.421C137.028 234.24 293.852 227.779 307.039 213.533C314.95 207.052 312.084 157.575 306.777 121.305C306.726 116.16 308.331 112.43 310.762 108.394V108.394Z" fill="#191919"/>
<path d="M193.177 235.407C163.665 235.407 123.235 233.488 110.845 223.594L110.684 223.466C106.376 219.835 101.422 211.594 101.25 179.321C101.293 158.91 102.708 138.525 105.488 118.297C105.272 115.83 104.384 113.465 102.915 111.451C91.685 94.7111 92.0381 75.6759 103.924 59.2229C105.064 57.5014 116.173 42.5423 125.758 44.8179C126.699 45.0424 127.591 45.4312 128.391 45.9655C133.638 49.4678 132.316 55.404 131.166 60.5684C130.611 63.0517 128.936 70.462 129.955 72.6287C130.379 72.7573 131.923 73.0937 135.454 72.4011L135.827 72.3318C192.683 63.8827 242.778 64.3477 284.6 73.7367C285.652 74.028 286.75 74.1253 287.839 74.0236C289.15 71.857 288.131 63.7739 287.839 61.0631C287.586 59.025 287.364 57.2738 287.324 55.7305C287.132 48.1322 292.369 46.2623 294.003 45.8369C302.327 43.8582 311.63 54.9588 314.284 58.4215C320.337 66.2572 332.647 87.2118 317.765 112.341C315.747 115.755 314.99 117.961 314.909 120.81C317.676 139.911 319.36 159.147 319.954 178.43C320.61 207.577 316.927 215.511 312.669 219.261C309.35 222.575 301.813 226.741 275.751 230.362C255.512 232.975 235.146 234.541 214.739 235.051C208.988 235.249 201.521 235.407 193.177 235.407V235.407ZM121.349 211.544C127.201 215.591 155.654 220.844 212.257 219.311C262.705 217.945 296.213 211.95 301.177 208.121L301.429 207.874C305.132 201.403 304.799 163.857 298.786 122.453C298.732 122.082 298.705 121.709 298.705 121.335C298.749 115.342 300.496 109.48 303.75 104.407C308.714 96.0269 309.864 87.469 307.17 78.9803C306.481 76.8296 305.583 74.7489 304.487 72.7672C304.043 77.6546 302.469 82.4134 298.604 85.8563C295.577 88.4979 290.149 91.2088 280.998 89.1608C241.164 80.2566 193.218 79.8213 138.42 87.9439C129.622 89.6357 122.892 88.2308 118.433 83.7589C115.801 81.0571 114.152 77.5796 113.741 73.8653C113.038 75.3521 112.455 76.8903 111.996 78.4659C109.574 86.6181 111.057 94.7902 116.395 102.745C119.713 107.446 121.539 113.006 121.641 118.723C121.643 119.083 121.619 119.444 121.571 119.801C118.931 138.881 117.536 158.107 117.394 177.362C117.363 203.877 120.763 210.594 121.349 211.544V211.544Z" fill="#191919"/>
<path d="M310.762 108.394C328.924 77.7238 299.906 52.5744 295.941 53.544C292.722 54.3256 305.274 86.4796 282.824 81.4537C229.883 69.5913 173.27 74.7657 137.028 80.1379C110.674 85.3419 126.646 54.4146 123.841 52.5052C119.805 51.5158 89.4249 77.0115 109.614 107.098C112.076 110.504 113.452 114.55 113.57 118.723C108.303 156.318 106.719 209.654 115.941 217.421C137.028 234.24 293.852 227.779 307.039 213.533C314.95 207.052 312.084 157.575 306.777 121.305C306.726 116.16 308.331 112.43 310.762 108.394V108.394Z" fill="#732499"/>
<path d="M148.894 114.617C158.115 117.209 185.791 128.864 188.435 132.752C191.078 136.64 169.981 156.071 155.492 146.999C139.661 137.926 139.661 112.025 148.894 114.617V114.617Z" fill="white"/>
<path d="M263.543 146.999C247.732 156.061 227.956 136.64 230.6 132.752C233.243 128.864 260.869 117.209 270.141 114.617C279.414 112.025 279.363 137.926 263.543 146.999Z" fill="white"/>
<path d="M208.191 193.627C162.061 193.627 139.661 169.022 143.617 162.541C147.572 156.061 179.203 175.492 209.512 175.492C239.822 175.492 272.775 158.673 275.408 165.133C278.041 170.308 254.321 193.627 208.191 193.627V193.627Z" fill="white"/>
<path d="M162.333 375.951C160.711 377.573 158.599 378.383 155.997 378.383C153.437 378.383 151.389 377.53 149.853 375.823C148.317 374.159 147.549 371.962 147.549 369.231C147.549 366.458 148.039 363.279 149.021 359.695L151.901 350.223C148.317 354.746 145.031 359.077 142.045 363.215C136.157 371.365 132.167 376.826 130.077 379.599L128.925 379.279L126.429 348.303L121.309 357.647C116.445 366.821 112.37 372.858 109.085 375.759C105.842 378.703 101.511 380.175 96.0925 380.175C91.4845 380.175 87.6659 378.533 84.6365 375.247C82.2472 372.559 81.0525 369.338 81.0525 365.583C81.0525 364.901 81.0952 364.197 81.1805 363.471L82.4605 363.599C82.3752 364.282 82.3325 364.943 82.3325 365.583C82.3325 369.039 83.4205 371.962 85.5965 374.351C88.3699 377.381 91.8685 378.895 96.0925 378.895C101.17 378.895 105.266 377.466 108.381 374.607C111.495 371.791 115.421 365.946 120.157 357.071L131.677 336.143C127.154 336.058 122.759 335.354 118.493 334.031C114.269 332.666 110.471 331.983 107.101 331.983C103.773 331.983 100.978 333.157 98.7165 335.503C96.4552 337.85 95.3245 340.879 95.3245 344.591H94.0445C94.0445 340.495 95.2819 337.167 97.7565 334.607C100.274 332.005 103.517 330.703 107.485 330.703C110.685 330.703 114.482 331.407 118.877 332.815C123.314 334.181 128.093 334.863 133.213 334.863L135.901 369.423L137.181 367.631C146.183 355.258 153.138 346.426 158.045 341.135C162.951 335.802 166.919 333.135 169.949 333.135V334.415C168.626 334.415 166.941 335.141 164.893 336.591C164.594 337.53 163.591 340.794 161.885 346.383C160.178 351.93 158.642 356.794 157.277 360.975C155.954 365.114 155.293 368.506 155.293 371.151C155.293 373.797 155.762 375.759 156.701 377.039C157.597 377.039 158.429 376.847 159.197 376.463C160.007 376.122 160.605 375.759 160.989 375.375L161.501 374.863L162.333 375.951ZM177.908 370.191C174.622 370.191 172.126 369.381 170.42 367.759C168.713 366.095 167.86 364.026 167.86 361.551C167.86 359.034 168.073 356.901 168.5 355.151C168.969 353.359 169.716 351.653 170.74 350.031C171.764 348.367 173.3 347.066 175.348 346.127C177.438 345.189 180.02 344.719 183.092 344.719C186.206 344.719 188.617 345.551 190.324 347.215C192.073 348.837 192.948 351.077 192.948 353.935C192.948 358.799 191.646 362.725 189.044 365.711C186.484 368.698 182.772 370.191 177.908 370.191ZM175.092 363.599C175.092 367.013 176.073 368.719 178.036 368.719C180.041 368.719 181.812 367.013 183.348 363.599C184.926 360.143 185.716 356.047 185.716 351.311C185.716 347.727 184.734 345.935 182.772 345.935C180.852 345.935 179.081 347.578 177.46 350.863C175.881 354.106 175.092 358.351 175.092 363.599ZM220.878 368.911C221.902 368.911 222.968 368.314 224.078 367.119L225.038 367.887C224.739 368.485 224.078 369.018 223.054 369.487C222.03 369.957 220.899 370.191 219.662 370.191C215.779 370.191 213.838 368.442 213.838 364.943C213.838 363.45 214.222 360.783 214.99 356.943C215.758 353.103 216.142 350.586 216.142 349.391C216.142 347.557 215.267 346.639 213.518 346.639C212.11 346.639 210.744 347.557 209.422 349.391C208.142 351.226 207.075 353.743 206.222 356.943L204.046 368.911C205.368 368.783 206.456 368.186 207.31 367.119L208.27 367.887C206.99 369.423 205.39 370.191 203.47 370.191C201.55 370.191 200.035 369.701 198.926 368.719C197.859 367.738 197.326 366.458 197.326 364.879C197.326 364.282 197.667 361.935 198.35 357.839L200.462 345.999C199.182 346.127 198.115 346.725 197.262 347.791L196.302 347.023C197.582 345.487 199.182 344.719 201.102 344.719C203.064 344.719 204.579 345.21 205.646 346.191C206.712 347.173 207.246 348.559 207.246 350.351V350.735C208.995 346.725 211.726 344.719 215.438 344.719C217.955 344.719 219.918 345.445 221.326 346.895C222.734 348.303 223.438 350.266 223.438 352.783C223.438 354.106 223.032 356.666 222.222 360.463C221.411 364.218 220.963 367.034 220.878 368.911ZM234.063 368.527C238.287 368.527 240.399 365.413 240.399 359.183C240.399 357.647 240.164 355.834 239.695 353.743C239.268 351.653 239.012 350.351 238.927 349.839C236.324 352.527 233.402 354.149 230.159 354.703V353.167C233.231 352.485 236.111 350.735 238.799 347.919V347.663C238.799 346.639 238.948 345.637 239.247 344.655C239.546 343.674 239.844 342.949 240.143 342.479L240.591 341.775H242.127C242.127 343.653 242.426 345.381 243.023 346.959C243.62 348.495 244.282 349.754 245.007 350.735C245.732 351.674 246.394 352.933 246.991 354.511C247.588 356.047 247.887 357.754 247.887 359.631C247.887 362.661 246.735 365.178 244.431 367.183C242.17 369.189 239.439 370.191 236.239 370.191C233.039 370.191 230.607 369.466 228.943 368.015C227.322 366.565 226.511 364.901 226.511 363.023C226.511 361.103 226.98 359.738 227.919 358.927C228.858 358.074 229.967 357.647 231.247 357.647C232.527 357.647 233.572 358.074 234.383 358.927C235.236 359.738 235.663 360.805 235.663 362.127C235.663 363.407 235.258 364.495 234.447 365.391C233.636 366.287 232.591 366.735 231.311 366.735C230.756 366.735 230.18 366.65 229.583 366.479C230.522 367.845 232.015 368.527 234.063 368.527ZM255.265 345.295L256.993 335.823C260.15 335.823 262.497 335.695 264.033 335.439L264.865 335.247C264.268 338.234 263.606 341.583 262.881 345.295H270.817L270.689 346.447H262.689C260.556 357.455 259.489 364.09 259.489 366.351C259.489 367.717 260.214 368.399 261.665 368.399C263.116 368.399 264.438 367.482 265.633 365.647C266.828 363.813 267.681 361.829 268.193 359.695L269.345 360.079C267.766 366.821 264.502 370.191 259.553 370.191C257.505 370.191 255.798 369.637 254.433 368.527C253.068 367.375 252.385 365.797 252.385 363.791C252.385 361.743 253.26 355.962 255.009 346.447H251.873L252.001 345.295H255.265ZM285.746 344.719C291.165 344.719 293.874 346.874 293.874 351.183C293.874 353.871 292.594 355.919 290.034 357.327C287.517 358.693 283.911 359.397 279.218 359.439C279.133 360.975 279.09 362.191 279.09 363.087C279.09 365.007 279.517 366.437 280.37 367.375C281.266 368.271 282.375 368.719 283.698 368.719C285.021 368.719 286.215 368.463 287.282 367.951C288.391 367.439 289.266 366.842 289.906 366.159C290.546 365.434 291.101 364.687 291.57 363.919C292.423 362.511 292.85 361.615 292.85 361.231L294.002 361.743C293.874 362.426 293.49 363.343 292.85 364.495C292.21 365.605 291.506 366.522 290.738 367.247C289.97 367.973 288.839 368.655 287.346 369.295C285.853 369.893 284.189 370.191 282.354 370.191C278.898 370.191 276.274 369.381 274.482 367.759C272.733 366.095 271.858 363.834 271.858 360.975C271.858 355.898 273.117 351.93 275.634 349.071C278.151 346.17 281.522 344.719 285.746 344.719ZM292.274 351.183C292.274 349.775 291.847 348.623 290.994 347.727C290.183 346.789 288.946 346.319 287.282 346.319C285.661 346.319 284.061 347.301 282.482 349.263C280.946 351.226 279.922 354.127 279.41 357.967C287.986 357.925 292.274 355.663 292.274 351.183ZM297.744 347.023C299.024 345.487 300.624 344.719 302.544 344.719C304.506 344.719 306.021 345.21 307.088 346.191C308.154 347.173 308.688 348.559 308.688 350.351V350.735C310.608 346.725 313.104 344.719 316.176 344.719C319.461 344.719 321.104 346.426 321.104 349.839C321.104 351.247 320.634 352.741 319.696 354.319C318.757 355.898 317.818 357.413 316.88 358.863C315.941 360.271 315.472 361.53 315.472 362.639H313.936C313.936 361.061 314.853 358.927 316.688 356.239C318.522 353.551 319.44 351.482 319.44 350.031C319.44 348.538 319.141 347.535 318.544 347.023C317.989 346.469 317.136 346.191 315.984 346.191C314.874 346.191 313.765 346.682 312.656 347.663C311.589 348.645 310.693 349.882 309.968 351.375C308.816 353.594 308.048 355.407 307.664 356.815V356.879L305.36 369.615H297.68L301.904 345.999C300.624 346.127 299.557 346.725 298.704 347.791L297.744 347.023Z" fill="white"/>
<path d="M154.358 435.089C154.358 442.289 156.686 447.041 161.342 449.345C162.494 449.489 164.006 449.561 165.878 449.561C167.798 449.561 169.814 449.201 171.926 448.481C174.038 447.761 175.67 446.873 176.822 445.817C179.27 443.561 180.806 441.617 181.43 439.985L181.79 438.905L183.23 439.481C182.894 440.585 182.246 441.857 181.286 443.297C180.326 444.737 179.222 445.961 177.974 446.969C176.774 447.977 174.998 448.889 172.646 449.705C170.342 450.569 167.774 451.001 164.942 451.001C158.894 451.001 154.19 449.249 150.83 445.745C147.518 442.241 145.862 437.297 145.862 430.913C145.862 422.225 148.67 415.073 154.286 409.457C159.902 403.841 167.27 401.033 176.39 401.033C180.614 401.033 183.662 401.801 185.534 403.337C187.406 404.825 188.342 407.177 188.342 410.393C188.342 412.553 187.286 415.217 185.174 418.385C183.254 421.457 182.294 423.857 182.294 425.585H180.71C180.71 424.625 180.902 423.593 181.286 422.489C181.67 421.385 182.006 420.593 182.294 420.113C182.582 419.633 183.11 418.769 183.878 417.521C185.75 414.689 186.686 412.361 186.686 410.537C186.686 406.697 185.102 404.273 181.934 403.265C180.446 402.785 178.886 402.545 177.254 402.545C175.622 402.545 173.894 402.641 172.07 402.833C170.39 403.361 168.782 404.057 167.246 404.921C165.758 405.737 164.198 407.009 162.566 408.737C160.934 410.417 159.542 412.385 158.39 414.641C157.238 416.897 156.278 419.801 155.51 423.353C154.742 426.857 154.358 430.769 154.358 435.089ZM215.238 445.529C211.014 445.529 208.71 443.681 208.326 439.985C206.214 443.681 203.55 445.529 200.334 445.529C197.118 445.529 194.55 444.569 192.63 442.649C190.758 440.681 189.822 437.945 189.822 434.441C189.822 428.969 191.166 424.673 193.854 421.553C196.542 418.433 200.022 416.873 204.294 416.873C207.798 416.873 210.126 418.529 211.278 421.841C211.518 420.401 211.782 418.961 212.07 417.521C215.622 417.521 218.262 417.377 219.99 417.089L220.926 416.873L215.958 444.089C217.398 443.945 218.598 443.273 219.558 442.073L220.638 442.937C219.198 444.665 217.398 445.529 215.238 445.529ZM197.958 438.113C197.958 440.273 198.222 441.785 198.75 442.649C199.326 443.465 200.19 443.873 201.342 443.873C202.494 443.873 203.67 443.249 204.87 442.001C206.454 440.369 207.726 438.305 208.686 435.809C208.83 435.185 209.094 433.697 209.478 431.345C209.91 428.945 210.27 426.977 210.558 425.441C210.414 423.617 209.91 422.033 209.046 420.689C208.182 419.345 207.102 418.673 205.806 418.673C203.454 418.673 201.558 420.785 200.118 425.009C198.678 429.185 197.958 433.553 197.958 438.113ZM235.065 430.985L232.473 444.881H223.905L232.041 399.665C230.601 399.809 229.401 400.481 228.441 401.681L227.361 400.817C228.801 399.089 230.601 398.225 232.761 398.225C234.969 398.225 236.673 398.777 237.873 399.881C239.073 400.985 239.673 402.545 239.673 404.561C239.673 404.945 239.625 405.569 239.529 406.433C238.425 412.529 237.225 419.105 235.929 426.161C237.129 423.233 238.857 420.953 241.113 419.321C243.369 417.689 245.769 416.873 248.313 416.873C250.857 416.873 252.633 417.377 253.641 418.385C254.697 419.393 255.225 420.665 255.225 422.201C255.225 423.689 254.769 424.913 253.857 425.873C252.945 426.833 251.745 427.313 250.257 427.313C248.817 427.313 247.689 426.905 246.873 426.089C246.105 425.225 245.721 423.977 245.721 422.345C245.721 420.665 246.297 419.393 247.449 418.529C242.841 419.057 239.169 422.465 236.433 428.753C237.105 428.657 237.681 428.609 238.161 428.609C240.705 428.609 242.697 429.113 244.137 430.121C245.625 431.129 246.585 432.377 247.017 433.865C247.449 435.305 247.761 436.769 247.953 438.257C248.145 439.697 248.457 440.921 248.889 441.929C249.321 442.937 250.089 443.441 251.193 443.441C252.297 443.441 253.161 442.985 253.785 442.073L254.865 442.937C254.529 443.609 253.785 444.209 252.633 444.737C251.481 445.265 249.993 445.529 248.169 445.529C246.393 445.529 244.809 445.073 243.417 444.161C242.073 443.249 241.137 442.121 240.609 440.777C240.081 439.385 239.649 438.017 239.313 436.673C238.401 433.217 236.985 431.321 235.065 430.985ZM274.069 416.873C280.165 416.873 283.213 419.297 283.213 424.145C283.213 427.169 281.773 429.473 278.893 431.057C276.061 432.593 272.005 433.385 266.725 433.433C266.629 435.161 266.581 436.529 266.581 437.537C266.581 439.697 267.061 441.305 268.021 442.361C269.029 443.369 270.277 443.873 271.765 443.873C273.253 443.873 274.597 443.585 275.797 443.009C277.045 442.433 278.029 441.761 278.749 440.993C279.469 440.177 280.093 439.337 280.621 438.473C281.581 436.889 282.061 435.881 282.061 435.449L283.357 436.025C283.213 436.793 282.781 437.825 282.061 439.121C281.341 440.369 280.549 441.401 279.685 442.217C278.821 443.033 277.549 443.801 275.869 444.521C274.189 445.193 272.317 445.529 270.253 445.529C266.365 445.529 263.413 444.617 261.397 442.793C259.429 440.921 258.445 438.377 258.445 435.161C258.445 429.449 259.861 424.985 262.693 421.769C265.525 418.505 269.317 416.873 274.069 416.873ZM281.413 424.145C281.413 422.561 280.933 421.265 279.973 420.257C279.061 419.201 277.669 418.673 275.797 418.673C273.973 418.673 272.173 419.777 270.397 421.985C268.669 424.193 267.517 427.457 266.941 431.777C276.589 431.729 281.413 429.185 281.413 424.145Z" fill="#DFDFDF"/>
</svg>
